<svg width="242" height="242" viewBox="0 0 242 242" fill="none" xmlns="http://www.w3.org/2000/svg">
<path d="M122.489 108.475C122.312 108.249 122.086 108.066 121.828 107.94C121.57 107.815 121.287 107.749 121 107.749C120.713 107.749 120.43 107.815 120.172 107.94C119.914 108.066 119.688 108.249 119.511 108.475L93.0427 141.962C92.8245 142.241 92.6891 142.575 92.652 142.927C92.6149 143.279 92.6776 143.635 92.8329 143.953C92.9882 144.271 93.2299 144.539 93.5303 144.726C93.8307 144.913 94.1776 145.012 94.5316 145.011H111.996V202.297C111.996 203.337 112.847 204.188 113.887 204.188H128.067C129.106 204.188 129.957 203.337 129.957 202.297V145.035H147.469C149.052 145.035 149.927 143.215 148.958 141.986L122.489 108.475Z" fill="white"/>
<path d="M191.757 86.6615C180.933 58.1131 153.353 37.8125 121.047 37.8125C88.7412 37.8125 61.1617 58.0895 50.3379 86.6379C30.0846 91.9553 15.125 110.412 15.125 132.344C15.125 158.458 36.2764 179.609 62.367 179.609H71.8438C72.8836 179.609 73.7344 178.759 73.7344 177.719V163.539C73.7344 162.499 72.8836 161.648 71.8438 161.648H62.367C54.4027 161.648 46.9111 158.482 41.3338 152.739C35.7801 147.02 32.826 139.315 33.0859 131.328C33.2986 125.088 35.4256 119.228 39.2777 114.288C43.2244 109.254 48.7545 105.591 54.899 103.961L63.8559 101.621L67.1408 92.9715C69.1732 87.5832 72.0092 82.5494 75.5777 77.9883C79.1007 73.4675 83.2739 69.4935 87.9613 66.1955C97.6744 59.3656 109.113 55.7498 121.047 55.7498C132.982 55.7498 144.42 59.3656 154.133 66.1955C158.836 69.5041 162.996 73.4744 166.517 77.9883C170.085 82.5494 172.921 87.6068 174.954 92.9715L178.215 101.597L187.148 103.961C199.957 107.411 208.914 119.062 208.914 132.344C208.914 140.166 205.865 147.54 200.335 153.07C197.623 155.798 194.397 157.96 190.844 159.433C187.29 160.906 183.48 161.659 179.633 161.648H170.156C169.116 161.648 168.266 162.499 168.266 163.539V177.719C168.266 178.759 169.116 179.609 170.156 179.609H179.633C205.724 179.609 226.875 158.458 226.875 132.344C226.875 110.436 211.963 92.0025 191.757 86.6615Z" fill="white"/>
</svg>
