<svg width="24" height="24" viewBox="0 0 24 24" fill="none" xmlns="http://www.w3.org/2000/svg">
<path d="M21.558 3.59201L20.408 2.44201C20.2694 2.30172 20.1044 2.19033 19.9224 2.11431C19.7404 2.03829 19.5452 1.99915 19.348 1.99915C19.1508 1.99915 18.9556 2.03829 18.7736 2.11431C18.5916 2.19033 18.4266 2.30172 18.288 2.44201L13 7.73101V11H16.27L21.558 5.71201C21.6983 5.57342 21.8097 5.40836 21.8857 5.2264C21.9617 5.04445 22.0009 4.84921 22.0009 4.65201C22.0009 4.45481 21.9617 4.25957 21.8857 4.07761C21.8097 3.89565 21.6983 3.73059 21.558 3.59201ZM15.579 9.45001H14.549V8.42001L18 4.97301L19.03 6.00301L15.579 9.45001Z" fill="black"/>
<path d="M19 19H5V5H11V3H5C4.47005 3.00158 3.96227 3.2128 3.58753 3.58753C3.2128 3.96227 3.00158 4.47005 3 5V19C3.00158 19.5299 3.2128 20.0377 3.58753 20.4125C3.96227 20.7872 4.47005 20.9984 5 21H19C19.5299 20.9984 20.0377 20.7872 20.4125 20.4125C20.7872 20.0377 20.9984 19.5299 21 19V13H19V19Z" fill="black"/>
</svg>
