<svg width="9" height="14" viewBox="0 0 9 14" fill="none" xmlns="http://www.w3.org/2000/svg">
<path d="M3.40994 6.99994L7.70994 2.70994C7.89824 2.52164 8.00403 2.26624 8.00403 1.99994C8.00403 1.73364 7.89824 1.47825 7.70994 1.28994C7.52163 1.10164 7.26624 0.99585 6.99994 0.99585C6.73364 0.99585 6.47824 1.10164 6.28994 1.28994L1.28994 6.28994C1.19621 6.3829 1.12182 6.49351 1.07105 6.61536C1.02028 6.73722 0.994141 6.86793 0.994141 6.99994C0.994141 7.13195 1.02028 7.26266 1.07105 7.38452C1.12182 7.50638 1.19621 7.61698 1.28994 7.70994L6.28994 12.7099C6.3829 12.8037 6.4935 12.8781 6.61536 12.9288C6.73722 12.9796 6.86793 13.0057 6.99994 13.0057C7.13195 13.0057 7.26266 12.9796 7.38452 12.9288C7.50638 12.8781 7.61698 12.8037 7.70994 12.7099C7.80367 12.617 7.87806 12.5064 7.92883 12.3845C7.9796 12.2627 8.00574 12.132 8.00574 11.9999C8.00574 11.8679 7.9796 11.7372 7.92883 11.6154C7.87806 11.4935 7.80367 11.3829 7.70994 11.2899L3.40994 6.99994Z" fill="black"/>
</svg>
