<svg width="9" height="14" viewBox="0 0 9 14" fill="none" xmlns="http://www.w3.org/2000/svg">
<path d="M2.70994 1.28994C2.52164 1.10164 2.26624 0.99585 1.99994 0.99585C1.73364 0.99585 1.47824 1.10164 1.28994 1.28994C1.10164 1.47825 0.995847 1.73364 0.995847 1.99994C0.995847 2.26624 1.10164 2.52164 1.28994 2.70994L5.58994 6.99994L1.28994 11.2899C1.19621 11.3829 1.12182 11.4935 1.07105 11.6154C1.02028 11.7372 0.994141 11.8679 0.994141 11.9999C0.994141 12.132 1.02028 12.2627 1.07105 12.3845C1.12182 12.5064 1.19621 12.617 1.28994 12.7099C1.3829 12.8037 1.4935 12.8781 1.61536 12.9288C1.73722 12.9796 1.86793 13.0057 1.99994 13.0057C2.13195 13.0057 2.26266 12.9796 2.38452 12.9288C2.50638 12.8781 2.61698 12.8037 2.70994 12.7099L7.70994 7.70994C7.80367 7.61698 7.87806 7.50638 7.92883 7.38452C7.9796 7.26266 8.00574 7.13195 8.00574 6.99994C8.00574 6.86793 7.9796 6.73722 7.92883 6.61536C7.87806 6.49351 7.80367 6.3829 7.70994 6.28994L2.70994 1.28994Z" fill="black"/>
</svg>
