<svg width="616" height="503" viewBox="0 0 616 503" fill="none" xmlns="http://www.w3.org/2000/svg">
<g filter="url(#filter0_d)">
<path opacity="0.25" d="M596.24 286.948C596.24 287.324 596.24 287.7 596.24 288.07C596.174 294.555 595.79 301.023 595.086 307.475C595.089 307.514 595.089 307.553 595.086 307.592C595.03 308.128 594.968 308.658 594.906 309.194C594.801 310.101 594.69 311.001 594.567 311.907C593.127 322.936 590.745 333.823 587.446 344.447C583.027 358.804 576.78 372.535 568.857 385.303C566.42 389.207 563.824 392.986 561.07 396.639C559.6 398.575 558.099 400.467 556.549 402.329C555.462 403.631 554.355 404.913 553.227 406.175L552.523 406.952C546.587 413.457 540.189 419.526 533.378 425.111C522.262 434.308 510.294 442.309 498.134 449.731C497.442 450.156 496.744 450.575 496.046 450.964C495.998 450.999 495.946 451.03 495.892 451.056C479.366 461.03 462.228 470.029 444.572 477.235C425.242 485.144 405.282 490.895 384.804 493.41C356.26 496.911 327.37 494.064 298.999 489.169C275.404 485.122 252.094 479.563 229.214 472.526L225.447 471.349C223.496 470.728 221.546 470.095 219.599 469.45C207.836 465.567 196.205 461.252 184.706 456.505C155.826 444.632 128.236 429.846 102.366 412.376C99.0723 410.165 95.826 407.905 92.627 405.596C88.1558 402.382 83.7381 399.074 79.374 395.671L76.6814 393.588C65.2604 384.661 54.56 374.853 44.6791 364.253C31.3891 349.816 20.032 333.53 12.5656 314.939C11.3881 312.018 10.3094 309.04 9.32957 306.008L9.23693 305.706C8.74288 304.164 8.28588 302.623 7.86593 301.021C7.24837 298.728 6.70697 296.406 6.24173 294.055C6.14292 293.605 6.05646 293.155 5.97618 292.699C4.50013 284.789 3.84821 276.747 4.03084 268.702C4.1853 261.654 5.01246 254.636 6.50111 247.744C8.02478 240.6 10.3728 233.656 13.4981 227.051C16.3225 221.112 19.9212 215.572 24.2006 210.574C27.2077 207.08 30.5895 203.926 34.2854 201.168C40.986 196.187 48.4154 192.717 56.1164 189.974C59.7354 188.679 63.4037 187.545 67.0906 186.491C69.7029 185.739 72.3276 185.024 74.9399 184.321L82.6471 182.244C87.5876 180.9 92.5282 179.519 97.3946 178.027C110.66 173.984 123.66 169.089 135.684 161.791C137.586 160.638 139.525 159.375 141.464 158.019C143.934 156.305 146.368 154.443 148.776 152.434C151.209 150.4 153.593 148.224 155.866 145.918C156.218 145.561 156.564 145.203 156.91 144.84C158.762 142.892 160.559 140.851 162.227 138.731C163.042 137.695 163.832 136.641 164.586 135.569C165.63 134.083 166.618 132.573 167.532 131.02C172.114 123.253 174.942 114.685 174.609 105.654C174.56 104.166 174.426 102.682 174.208 101.21C173.405 95.7668 172.633 90.4533 172.065 85.2569C169.681 63.7625 170.687 44.2715 186.849 25.9578C206.945 3.19358 238.484 -1.44803 267.195 0.370397C350.202 5.60993 425.767 52.9136 492.174 109.229C497.918 114.095 503.591 119.026 509.194 124.023C510.606 125.281 512.021 126.546 513.437 127.82C523.936 137.258 534.274 147.046 543.901 157.532C544.68 158.382 545.458 159.233 546.224 160.09C546.693 160.62 547.168 161.144 547.632 161.68C550.633 165.07 553.546 168.543 556.37 172.098C563.936 181.534 570.617 191.645 576.33 202.302C585.077 219.026 590.999 237.077 593.857 255.727C594.931 262.499 595.638 269.324 595.975 276.173C596.08 278.189 596.148 280.211 596.185 282.226C596.185 282.874 596.185 283.515 596.185 284.162C596.246 285.099 596.247 286.011 596.24 286.948Z" fill="url(#paint0_linear)"/>
<path d="M247.309 276.61L237.428 452.159L247.309 452.289L255.337 274.145L247.309 276.61Z" fill="#3F3D56"/>
<path d="M210.872 365.553H88.5942V392.059H210.872V365.553Z" fill="#A61731"/>
<path d="M218.901 388.97V405.614H92.5899C88.1187 402.4 83.7011 399.092 79.3369 395.689V388.97H218.901Z" fill="#3F3D56"/>
<path d="M244.122 351.092C243.776 352.688 243.326 354.266 242.85 355.838C241.448 360.381 239.762 364.862 239.435 369.584C238.996 375.822 240.67 383.078 236.347 387.608C235.235 388.779 233.784 389.655 232.79 390.906C232.637 391.102 232.496 391.308 232.37 391.522C231.481 392.99 231.376 394.777 231.363 396.454C231.374 400.03 231.607 403.602 232.061 407.149C233.525 419.354 236.415 431.583 232.617 443.104C231.929 445.102 231.127 447.059 230.215 448.966C228.362 453.035 226.342 457.047 225.737 461.455C225.293 464.722 225.428 468.087 225.404 471.41C223.452 470.789 221.503 470.156 219.555 469.511C207.793 465.628 196.162 461.313 184.663 456.567C184.694 456.4 184.725 456.228 184.749 456.061C185.632 450.575 184.422 444.966 182.952 439.615C179.864 428.279 175.492 417.054 172.904 405.638C171.862 401.18 171.179 396.645 170.86 392.077C170.786 391.054 170.743 390.025 170.737 388.995C170.706 387.651 170.737 386.308 170.792 384.951C170.922 382.245 171.039 379.034 168.872 377.388C167.68 376.494 166.105 376.34 164.715 375.798C162.035 374.756 160.201 372.34 158.077 370.404C157.063 369.423 155.826 368.702 154.471 368.305C153.117 367.908 151.686 367.845 150.301 368.123C136.419 371.298 126.216 383.053 113.297 388.995C112.797 389.229 112.296 389.451 111.79 389.661C110.119 390.272 108.528 391.083 107.053 392.077C106.017 392.795 105.265 393.853 104.929 395.067C104.602 396.374 104.886 397.742 105.046 399.086C105.306 401.271 105.212 403.483 104.768 405.638C104.601 406.473 104.38 407.297 104.108 408.104C103.613 409.565 102.953 410.995 102.323 412.419C99.0291 410.208 95.7827 407.948 92.5837 405.638C88.1125 402.425 83.6949 399.117 79.3307 395.714L76.6814 393.587C65.2604 384.661 54.56 374.852 44.6791 364.252C45.9945 360.554 47.8966 357.114 48.8106 353.323C49.3294 351.147 49.5208 348.885 50.2372 346.771C51.0633 344.579 52.2123 342.522 53.6461 340.668C58.8976 333.358 65.31 326.954 72.6301 321.707C80.2818 316.234 89.1192 311.845 96.005 305.631C98.7994 303.189 101.208 300.34 103.15 297.18C103.268 296.989 103.379 296.786 103.478 296.564C104.015 295.448 104.387 294.26 104.583 293.038C105.077 290.276 105.003 287.243 105.25 284.593C113.638 286.042 122.19 286.3 130.651 285.357C140.501 284.254 150.135 281.523 159.985 280.463C160.726 280.377 161.473 280.309 162.221 280.247C165.376 279.994 168.538 279.939 171.706 279.976C174.356 279.976 177.005 280.093 179.654 280.179L208.822 281.166C212.052 281.277 215.35 281.4 218.357 282.577C221.927 283.976 224.786 286.763 227.077 289.826C227.368 290.221 227.658 290.615 227.93 291.022C229.815 293.767 231.327 296.75 232.425 299.892C232.543 300.213 232.654 300.509 232.759 300.86C233.037 301.717 233.278 302.58 233.494 303.455C233.661 304.139 233.809 304.824 233.945 305.514C234.624 308.929 235.025 312.418 236.1 315.716C236.174 315.956 236.254 316.197 236.341 316.431C237.632 320.043 239.775 323.279 241.393 326.75C242.559 329.262 243.45 331.893 244.048 334.596C245.258 340.026 245.283 345.652 244.122 351.092Z" fill="#35323E"/>
<path d="M155.464 130.495C152.858 128.424 149.079 129.94 146.028 131.278C143.47 132.406 140.837 133.355 138.148 134.12C137.597 134.331 137.001 134.393 136.419 134.298C135.184 134.002 134.665 132.542 133.745 131.654C132.145 130.119 129.527 130.483 127.464 131.315C125.401 132.147 123.363 133.349 121.152 133.164C118.793 132.979 116.743 131.241 114.359 131.185C110.16 131.087 106.633 136.252 102.662 134.884C100.242 134.052 98.3395 130.908 95.9557 131.802C94.103 132.505 93.9363 135.063 92.8185 136.733C91.503 138.681 88.9401 139.23 86.7478 140.093C79.8372 142.817 75.261 150.504 76.1627 157.864C76.6629 161.926 78.633 165.649 79.936 169.527C83.802 180.801 82.4742 193.517 87.3468 204.391C87.9644 203.812 88.3102 203.596 88.9093 203.023C87.3686 206.212 87.0714 209.859 88.0755 213.255C88.5881 214.962 89.4218 216.553 90.0518 218.223C90.7061 220.097 91.2343 222.012 91.6327 223.956L97.0056 247.614C99.1053 256.86 101.211 266.106 101.576 275.575C101.802 281.731 101.33 287.893 100.167 293.944C109.9 292.335 118.806 288.026 128.668 288.082C132.287 288.082 135.875 288.698 139.463 289.191C149.924 290.652 160.476 291.367 171.039 291.33C172.682 291.423 174.327 291.193 175.881 290.652C177.24 290.073 178.351 289.043 179.636 288.297C182.149 286.818 185.194 286.448 188.09 286.448C201.3 286.208 214.028 291.034 227.152 292.736C232.333 281.881 232.642 268.874 228.665 257.526C227.485 254.154 225.898 250.869 225.429 247.324C225.24 245.145 225.191 242.957 225.28 240.772C225.26 235.178 224.25 229.631 222.297 224.387C221.532 222.335 220.611 220.245 220.692 218.057C220.772 215.869 221.853 213.828 222.915 211.893C225.07 207.948 227.238 203.966 230.283 200.637C233.401 197.197 237.304 194.578 241.164 192.007L250.693 185.621C249.39 177.404 247.71 168.75 244.221 161.193C240.732 153.635 235.513 146.688 228.455 142.269C226.075 140.84 223.584 139.603 221.007 138.57C217.4 137.054 213.645 135.716 209.736 135.488C205.29 135.235 200.911 136.425 196.52 137.165C182.699 139.489 166.432 139.205 155.464 130.495Z" fill="#A61731"/>
<path d="M259.66 273.084L255.127 278.798L246.58 289.567L236.699 302.013L233.939 305.489H228.584L95.9988 305.643L12.967 305.736H9.26161C8.76755 304.195 8.31055 302.654 7.89061 301.051C7.27304 298.758 6.73164 296.436 6.26641 294.086C6.1676 293.636 6.08114 293.186 6.00085 292.729L36.1258 273.072L47.4519 273.01L82.0974 272.813L101.446 272.702H104.978H107.195L120.09 272.634L218.37 272.073L223.397 272.043H225.577L231.351 272.012L252.836 271.888L256.961 270.323L257.264 270.643L259.66 273.084Z" fill="#3F3D56"/>
<path d="M257.807 270.002L257.295 270.619L253.923 274.582L246.982 282.762L232.425 299.892L103.478 296.607L6.24173 294.141C6.14292 293.691 6.05646 293.241 5.97618 292.785C4.50013 284.874 3.84821 276.832 4.03084 268.788L14.8136 263.277L17.2838 262.007L36.5087 252.145L53.3806 243.515L97.3884 249.223L107.134 250.487L111.543 251.054L117.997 251.892L118.54 251.966L219.741 265.065L230.925 266.513L237.49 267.364L257.721 269.99L257.807 270.002Z" fill="#504F60"/>
<path d="M236.81 299.59L236.705 302.013L236.088 315.691L232.765 390.894L232.061 407.149L230.208 448.966L229.165 472.587L225.398 471.41C223.446 470.789 221.497 470.156 219.549 469.511L228.584 305.545L228.776 302.105L232.753 300.872L236.81 299.59Z" fill="#3F3D56"/>
<path d="M13.2511 299.411L12.9732 305.742L12.5656 314.988C11.3882 312.066 10.3095 309.089 9.3296 306.056L9.23697 305.754C8.74291 304.213 8.28591 302.672 7.86597 301.07L13.2511 299.411Z" fill="#3F3D56"/>
<path d="M174.745 206.209C190.434 206.209 203.153 189.099 203.153 167.992C203.153 146.885 190.434 129.774 174.745 129.774C159.055 129.774 146.337 146.885 146.337 167.992C146.337 189.099 159.055 206.209 174.745 206.209Z" fill="#A1616A"/>
<path opacity="0.1" d="M174.745 206.209C190.434 206.209 203.153 189.099 203.153 167.992C203.153 146.885 190.434 129.774 174.745 129.774C159.055 129.774 146.337 146.885 146.337 167.992C146.337 189.099 159.055 206.209 174.745 206.209Z" fill="black"/>
<path d="M178.759 184.327C200.588 184.327 218.283 166.664 218.283 144.876C218.283 123.088 200.588 105.426 178.759 105.426C156.93 105.426 139.235 123.088 139.235 144.876C139.235 166.664 156.93 184.327 178.759 184.327Z" fill="#A1616A"/>
<path d="M179.543 84.0729C177.13 84.2649 174.734 84.6296 172.373 85.1639C166.124 86.6803 160.72 90.046 155.458 93.3499C153.099 94.8355 150.672 96.3827 149.208 98.5648C146.578 102.479 147.597 107.46 146.121 111.805C145.355 114.037 143.947 116.04 142.755 118.118C139.476 123.813 137.759 130.07 136.073 136.265C135.727 137.547 135.628 139.285 137.03 139.778C137.837 139.946 138.677 139.851 139.426 139.507C143.854 138.046 149.48 137.627 152.766 140.592C156.051 143.557 155.773 148.815 159.682 151.071C164.16 153.679 171.151 150.529 175.214 153.605C176.956 154.924 177.586 157.038 179.012 158.628C182.335 162.327 188.726 162.148 194.044 161.402C197.095 160.971 200.837 160.681 202.69 162.82C203.579 163.831 203.832 165.218 204.863 166.13C206.716 167.782 210.107 166.944 211.916 165.249C213.726 163.554 214.59 161.26 216.097 159.356C219.03 155.657 224.187 153.642 227.213 149.986C229.745 146.904 230.511 143.045 231.203 139.322L233.778 125.521C234.822 119.924 235.773 113.809 232.617 108.877C231.493 107.102 229.881 105.573 228.912 103.737C228.263 102.504 227.899 101.203 227.145 100.038C226.252 98.8244 225.184 97.7485 223.977 96.845L217.882 91.8089C215.798 89.9881 213.569 88.339 211.218 86.8776C202.517 81.8168 189.486 83.1483 179.543 84.0729Z" fill="#464353"/>
<path d="M49.3602 185.695C47.8966 187.248 46.5441 188.925 44.9755 190.38C43.5956 191.605 42.1526 192.757 40.6525 193.832C38.2316 195.64 35.8643 197.512 33.5505 199.447C31.1365 201.352 28.9522 203.531 27.0413 205.938C23.7435 210.358 22.1811 215.856 19.0933 220.424C16.3636 224.474 12.5162 227.673 9.74331 231.692C8.52684 233.382 7.62329 235.275 7.07542 237.283C6.66647 239.226 6.48205 241.209 6.52579 243.194C6.4702 246.449 6.4208 249.741 7.08777 252.928C7.75474 256.114 9.21837 259.246 11.7257 261.335C14.0539 263.277 17.0615 264.171 20.0073 264.911C21.5265 265.287 23.1692 265.638 24.6143 265.04C25.6718 264.507 26.5896 263.734 27.2945 262.784L34.8103 254.154C39.8373 248.36 45.0619 242.442 51.9602 239.052C54.1216 237.998 56.4005 237.203 58.5681 236.18C67.7575 231.76 74.2543 222.711 76.774 212.848C77.3915 210.438 77.7868 207.979 78.1882 205.519L79.2751 198.775C79.3586 198.437 79.3586 198.084 79.2751 197.746C79.1049 197.366 78.831 197.041 78.4846 196.809C73.2496 192.589 68.3481 187.973 63.8236 183.001C62.749 181.818 61.7424 180.197 60.5011 179.204C58.9448 177.971 59.0622 178.064 57.1909 179.204C54.3124 181.023 51.6805 183.205 49.3602 185.695Z" fill="#A1616A"/>
<path d="M100.773 230.57C100.71 230.427 100.619 230.298 100.506 230.191C100.392 230.083 100.258 230 100.111 229.946C99.9641 229.892 99.8079 229.868 99.6516 229.876C99.4954 229.883 99.3422 229.922 99.2015 229.99C99.0607 230.059 98.9352 230.154 98.8325 230.272C98.7298 230.39 98.652 230.527 98.6038 230.676C98.5556 230.824 98.5379 230.981 98.5519 231.137C98.566 231.292 98.6113 231.443 98.6853 231.581L98.0677 231.883L116.484 269.558L119.812 267.937L101.396 230.237L100.773 230.57Z" fill="#3F3D56"/>
<path opacity="0.04" d="M49.3602 185.695C47.8966 187.248 46.5441 188.925 44.9755 190.38C43.5956 191.605 42.1526 192.757 40.6525 193.832C38.2316 195.64 35.8643 197.512 33.5505 199.447C31.1365 201.352 28.9522 203.531 27.0413 205.938C23.7435 210.358 22.1811 215.856 19.0933 220.424C16.3636 224.474 12.5162 227.673 9.74331 231.692C8.52684 233.382 7.62329 235.275 7.07542 237.283C6.66647 239.226 6.48205 241.209 6.52579 243.194C6.4702 246.449 6.4208 249.741 7.08777 252.928C7.75474 256.114 9.21837 259.246 11.7257 261.335C14.0539 263.277 17.0615 264.171 20.0073 264.911C21.5265 265.287 23.1692 265.638 24.6143 265.04C25.6718 264.507 26.5896 263.734 27.2945 262.784L34.8103 254.154C39.8373 248.36 45.0619 242.442 51.9602 239.052C54.1216 237.998 56.4005 237.203 58.5681 236.18C67.7575 231.76 74.2543 222.711 76.774 212.848C77.3915 210.438 77.7868 207.979 78.1882 205.519L79.2751 198.775C79.3586 198.437 79.3586 198.084 79.2751 197.746C79.1049 197.366 78.831 197.041 78.4846 196.809C73.2496 192.589 68.3481 187.973 63.8236 183.001C62.749 181.818 61.7424 180.197 60.5011 179.204C58.9448 177.971 59.0622 178.064 57.1909 179.204C54.3124 181.023 51.6805 183.205 49.3602 185.695Z" fill="black"/>
<path d="M262.26 255.128C262.198 259.061 262.044 263.111 260.407 266.698C259.703 268.252 258.61 269.78 256.974 270.292C255.983 270.52 254.958 270.558 253.954 270.403C241.838 269.34 229.629 270.307 217.832 273.263C220.982 266.976 219.173 259.437 220.043 252.459C220.284 250.554 220.723 248.68 220.889 246.77C221.507 239.989 218.598 233.406 217.264 226.711C216.106 220.917 216.106 214.951 217.264 209.156C217.491 207.664 218.005 206.23 218.777 204.933C219.682 203.671 220.871 202.639 222.248 201.919C227.25 199.077 233.148 198.751 238.768 199.127C242.554 199.38 250.143 199.022 253.299 201.346C256.751 203.892 257.845 212.441 258.777 216.393C260.173 222.452 261.123 228.606 261.618 234.805C262.223 241.561 262.353 248.348 262.26 255.128Z" fill="#A1616A"/>
<path d="M41.0416 268.776L63.274 283.57L163.32 279.871L97.2402 268.776H41.0416Z" fill="white"/>
<path d="M70.3575 151.231C66.7077 154.443 63.6137 158.228 60.1553 161.649C55.4124 166.346 50.0211 170.34 44.6544 174.316C46.5786 174.853 48.3301 175.879 49.7375 177.295C51.1448 178.71 52.1597 180.466 52.6828 182.391C52.9175 183.297 53.0348 184.24 53.3004 185.128C53.9179 187.23 55.2766 189.042 56.734 190.676C62.9961 197.721 71.7594 202.936 75.4525 211.634C75.573 212.057 75.8344 212.427 76.1935 212.682C76.494 212.815 76.8278 212.853 77.1508 212.793C80.4918 212.441 83.0485 209.754 85.1791 207.14C89.6256 201.592 93.4854 195.465 95.6778 188.697C97.8701 181.929 98.2222 174.445 95.8322 167.739C94.6403 164.398 92.7999 161.328 90.9719 158.289C89.3704 155.63 87.7729 152.976 86.1796 150.325C85.3459 148.926 84.2837 146.084 82.6471 145.394C79.1146 143.877 72.624 148.969 70.3575 151.231Z" fill="#A61731"/>
<path d="M252.256 191.07L257.511 203.399C251.79 201.403 245.675 200.796 239.672 201.626C233.669 202.457 227.951 204.702 222.989 208.176C219.994 210.315 217.246 213.002 215.893 216.417C215.226 216.544 214.536 216.48 213.903 216.232C213.271 215.985 212.721 215.564 212.318 215.018C211.527 213.911 211.069 212.603 210.996 211.245C210.508 206.511 212.305 201.87 214.084 197.444C214.911 195.373 215.764 193.258 217.233 191.576C218.703 189.893 220.655 188.783 222.606 187.735C228.832 184.299 235.353 181.423 242.09 179.143C244.931 178.224 247.908 178.243 249.501 180.893C251.348 184.055 250.811 187.705 252.256 191.07Z" fill="#A61731"/>
<path d="M41.1713 228.061C42.4867 229.109 43.6416 230.348 44.994 231.347C46.4244 232.338 47.9464 233.191 49.5393 233.893L55.6285 236.814C57.5155 237.793 59.49 238.594 61.5263 239.206C64.1324 239.903 66.8683 239.971 69.4867 240.618C72.7907 241.431 75.8106 243.127 79.0652 244.107C82.3198 245.087 86.1302 245.247 88.8475 243.207C90.5458 241.931 91.8303 239.823 93.9362 239.508C95.2948 239.329 96.6041 239.983 97.8145 240.618L113.661 248.933C115.798 250.055 118.058 251.3 119.176 253.439C120.294 255.578 119.541 258.827 117.188 259.381C116.368 259.475 115.543 259.523 114.717 259.523C113.902 259.622 113.013 260.103 112.902 260.922C112.898 261.432 113.032 261.932 113.291 262.371C114.001 263.998 114.211 265.946 113.383 267.524C112.556 269.102 110.524 270.082 108.9 269.374C109.178 271.759 106.578 273.43 104.262 274.064C98.4197 275.661 92.2255 274.681 86.2537 273.67C83.9069 273.275 81.5231 272.869 79.3863 271.821C78.3612 271.321 77.4101 270.68 76.3726 270.218C73.5256 268.954 70.2896 269.121 67.177 269.176C52.7816 269.429 38.5096 266.766 24.355 264.115C21.7303 263.622 19.0316 263.098 16.7898 261.65C12.4668 258.839 10.8611 253.069 11.5714 247.965C12.2816 242.862 14.8753 238.238 17.4259 233.751L20.7299 227.938C21.1618 227.048 21.7663 226.251 22.5085 225.596C27.3687 221.891 37.0089 224.72 41.1713 228.061Z" fill="#A1616A"/>
<path opacity="0.04" d="M41.1713 228.061C42.4867 229.109 43.6416 230.348 44.994 231.347C46.4244 232.338 47.9464 233.191 49.5393 233.893L55.6285 236.814C57.5155 237.793 59.49 238.594 61.5263 239.206C64.1324 239.903 66.8683 239.971 69.4867 240.618C72.7907 241.431 75.8106 243.127 79.0652 244.107C82.3198 245.087 86.1302 245.247 88.8475 243.207C90.5458 241.931 91.8303 239.823 93.9362 239.508C95.2948 239.329 96.6041 239.983 97.8145 240.618L113.661 248.933C115.798 250.055 118.058 251.3 119.176 253.439C120.294 255.578 119.541 258.827 117.188 259.381C116.368 259.475 115.543 259.523 114.717 259.523C113.902 259.622 113.013 260.103 112.902 260.922C112.898 261.432 113.032 261.932 113.291 262.371C114.001 263.998 114.211 265.946 113.383 267.524C112.556 269.102 110.524 270.082 108.9 269.374C109.178 271.759 106.578 273.43 104.262 274.064C98.4197 275.661 92.2255 274.681 86.2537 273.67C83.9069 273.275 81.5231 272.869 79.3863 271.821C78.3612 271.321 77.4101 270.68 76.3726 270.218C73.5256 268.954 70.2896 269.121 67.177 269.176C52.7816 269.429 38.5096 266.766 24.355 264.115C21.7303 263.622 19.0316 263.098 16.7898 261.65C12.4668 258.839 10.8611 253.069 11.5714 247.965C12.2816 242.862 14.8753 238.238 17.4259 233.751L20.7299 227.938C21.1618 227.048 21.7663 226.251 22.5085 225.596C27.3687 221.891 37.0089 224.72 41.1713 228.061Z" fill="black"/>
<path d="M229.69 238.713C226.472 240.229 222.779 240.377 219.42 241.542C216.06 242.707 213.207 244.803 210.125 246.511C202.097 250.986 192.833 252.675 183.737 254.284C178.222 255.27 172.62 256.256 167.062 256.022C159.54 255.701 152.315 253.199 145.027 251.313C137.74 249.426 129.965 248.156 122.746 250.277C118.976 251.423 115.529 253.439 112.686 256.162C109.843 258.886 107.682 262.24 106.38 265.952C104.867 270.384 104.657 275.162 104.947 279.834C106.467 280.95 108.591 279.403 109.419 277.707C110.246 276.012 110.697 273.935 112.303 272.949C115.088 273.892 115.767 277.596 118.065 279.427C119.497 280.574 121.412 280.876 123.234 281.135L132.621 282.466C134.881 282.787 137.506 283.002 139.142 281.412C139.939 280.642 140.377 279.563 141.106 278.737C142.6 277.085 145.095 276.801 147.319 277.023C154.26 277.714 160.769 282.207 167.661 281.141C170.033 280.777 172.237 279.766 174.498 278.971C187.893 274.249 202.776 277.122 216.715 274.416C222.032 273.386 227.151 271.562 232.209 269.639C234.957 268.597 237.737 267.506 240.083 265.743C242.307 264.036 244.06 261.795 245.179 259.228C246.298 256.661 246.746 253.853 246.481 251.066C245.964 246.819 243.841 242.929 240.546 240.192C239.46 239.268 238.033 237.499 236.73 236.919C234.241 235.828 231.802 237.721 229.69 238.713Z" fill="#A1616A"/>
<g opacity="0.1">
<path opacity="0.1" d="M211.644 159.966C210.613 159.054 210.36 157.667 209.471 156.656C207.618 154.517 203.875 154.807 200.825 155.238C195.507 155.984 189.091 156.156 185.793 152.464C184.366 150.874 183.737 148.766 181.995 147.44C177.931 144.358 170.941 147.514 166.463 144.907C162.554 142.632 162.807 137.356 159.546 134.428C156.286 131.5 150.635 131.882 146.207 133.343C145.458 133.686 144.618 133.782 143.811 133.614C142.409 133.121 142.508 131.383 142.854 130.101C144.54 123.906 146.256 117.649 149.536 111.953C150.728 109.876 152.136 107.873 152.901 105.641C154.242 101.733 153.556 97.3135 155.316 93.615C153.426 94.8478 151.611 96.1916 150.444 97.9299C147.813 101.844 148.832 106.825 147.356 111.17C146.59 113.402 145.182 115.405 143.99 117.483C140.711 123.178 138.994 129.435 137.308 135.63C136.962 136.912 136.863 138.65 138.265 139.143C139.072 139.311 139.912 139.216 140.661 138.872C145.089 137.411 150.715 136.992 154.001 139.957C157.286 142.922 157.008 148.18 160.917 150.436C165.395 153.044 172.386 149.894 176.449 152.97C178.191 154.289 178.821 156.403 180.247 157.993C183.57 161.692 189.962 161.513 195.279 160.767C198.33 160.336 202.072 160.046 203.925 162.185C204.814 163.196 205.067 164.583 206.099 165.495C207.951 167.147 211.342 166.309 213.151 164.614C214.311 163.408 215.304 162.052 216.103 160.582C214.498 161.069 212.787 160.995 211.644 159.966Z" fill="black"/>
<path opacity="0.1" d="M222.896 153.185C222.499 153.697 222.13 154.23 221.791 154.782C224.162 153.093 226.676 151.515 228.448 149.364C228.908 148.807 229.322 148.213 229.684 147.588C227.219 149.351 224.65 150.972 222.896 153.185Z" fill="black"/>
</g>
<path d="M347.663 275.248L349.516 452.159L358.162 450.926L356.309 275.248H347.663Z" fill="#3F3D56"/>
<path d="M399.539 307.302L401.392 484.213L410.038 482.98L408.185 307.302H399.539Z" fill="#3F3D56"/>
<path d="M561.051 396.669L561.014 393.273V391.251L560.687 360.134L560.174 311.487L560.088 307.289H551.442L551.485 311.333L551.757 337.389L551.874 348.669L551.973 357.804L552.134 373.597L552.232 382.911V383.897L552.362 396.139L552.473 406.933L553.177 406.156C554.309 404.894 555.417 403.612 556.5 402.31L561.051 396.669Z" fill="#3F3D56"/>
<path d="M389.967 335.965L385.026 343.337L389.967 376.926L431.961 388.397H499.894L540.653 390.857L560.069 377.591L556.71 354.809L541.888 335.965H389.967Z" fill="#A61731"/>
<path d="M385.026 343.337L382.556 363.815C382.556 363.815 369.587 403.962 473.956 401.502C578.324 399.043 560.415 390.85 560.415 390.85L559.797 367.094C559.797 367.094 563.435 378.337 510.392 376.815C457.349 375.292 407.876 370.373 407.876 370.373C407.876 370.373 389.349 373.646 385.026 343.337Z" fill="#3F3D56"/>
<path d="M471.98 159.793C466.026 162.499 461.518 167.745 458.498 173.546C455.478 179.346 453.78 185.714 452.106 192.038C450.34 198.708 448.568 205.396 447.654 212.232C446.023 224.387 447.246 237.166 452.841 248.083C458.436 258.999 468.774 267.808 480.879 269.91C485.554 270.73 490.358 270.563 495.083 270.076C503.622 269.174 512.034 267.323 520.162 264.559C528.654 261.693 537.491 257.279 541.27 249.149C543.463 244.433 543.648 239.058 543.543 233.868C543.252 219.722 541.111 205.674 537.176 192.081C536.034 188.136 534.706 184.16 532.285 180.838C529.864 177.515 526.554 175.08 523.176 172.824C508.731 163.116 489.747 151.731 471.98 159.793Z" fill="#FBBEBE"/>
<path opacity="0.05" d="M471.98 159.793C466.026 162.499 461.518 167.745 458.498 173.546C455.478 179.346 453.78 185.714 452.106 192.038C450.34 198.708 448.568 205.396 447.654 212.232C446.023 224.387 447.246 237.166 452.841 248.083C458.436 258.999 468.774 267.808 480.879 269.91C485.554 270.73 490.358 270.563 495.083 270.076C503.622 269.174 512.034 267.323 520.162 264.559C528.654 261.693 537.491 257.279 541.27 249.149C543.463 244.433 543.648 239.058 543.543 233.868C543.252 219.722 541.111 205.674 537.176 192.081C536.034 188.136 534.706 184.16 532.285 180.838C529.864 177.515 526.554 175.08 523.176 172.824C508.731 163.116 489.747 151.731 471.98 159.793Z" fill="black"/>
<path d="M465.291 237.382C467.015 239.746 469.098 241.826 471.467 243.546C477.346 247.602 484.893 248.15 492.032 248.372C497.763 248.545 504.334 248.218 507.928 243.755C509.546 241.746 510.275 239.182 510.93 236.685C514.969 221.355 517.839 205.742 519.514 189.979L535.867 190.035C542.944 220.282 542.364 251.726 541.746 282.787L540.851 328.081L530.315 326.965C505.297 324.321 480.243 321.676 455.089 321.22C440.351 320.95 425.609 321.435 410.921 322.675L433.863 254.586C436.84 245.734 439.848 236.765 440.546 227.463C441.552 213.97 437.76 199.725 443.016 187.242C443.436 186.238 443.967 185.196 444.924 184.672C445.881 184.148 447.092 184.277 448.191 184.419C450.266 184.697 456.608 184.419 458.115 185.744C460.339 187.668 458.869 187.957 458.084 191.058C456.683 196.606 455.355 201.74 455.373 207.522C455.392 218.02 458.653 229.103 465.291 237.382Z" fill="#A61731"/>
<path d="M561.051 396.669C563.806 393.02 566.402 389.242 568.839 385.334C567.604 382.695 566.245 380.119 565.164 377.425C563.509 373.295 562.558 368.918 561.62 364.573C561.298 363.093 560.979 361.614 560.662 360.135C557.204 344.04 553.956 327.717 553.282 311.401C553.221 310.045 553.182 308.688 553.165 307.332C553.165 307.135 553.165 306.944 553.165 306.716C553.165 305.23 553.165 303.745 553.165 302.265C553.239 298.567 553.474 294.838 553.9 291.127C553.98 290.399 554.073 289.672 554.172 288.945C554.172 288.784 554.209 288.63 554.233 288.47L596.228 286.941L599.76 286.812C602.188 286.726 604.757 286.59 606.757 285.215C610.123 282.91 610.518 278.182 610.463 274.12C610.258 263.853 609.092 253.627 606.98 243.577C605.387 236.019 603.114 228.296 598.013 222.489C593.826 217.718 587.761 214.247 585.581 208.311C584.772 206.105 584.568 203.682 583.518 201.574C582.469 199.466 580.733 197.919 579.097 196.291C573.337 190.595 568.559 183.988 564.954 176.739C562.453 171.709 559.742 166.161 556.475 162.684C556.315 162.506 556.154 162.339 555.987 162.179C553.208 159.436 550.028 158.234 546.261 160.102C545.583 160.441 544.938 160.841 544.334 161.297C542.991 162.321 541.763 163.487 540.672 164.774C536.866 169.141 533.528 173.893 530.71 178.952C528.729 182.513 527.028 186.223 525.622 190.047C524.512 193.068 523.594 196.157 522.873 199.293C522.342 201.617 521.922 203.966 521.589 206.32C520.354 215.172 520.354 224.196 520.527 233.159C520.712 241.394 521.076 249.648 521.824 257.853C522.009 259.838 522.215 261.82 522.441 263.801C522.894 267.717 523.454 271.621 524.121 275.513C524.386 276.999 524.658 278.484 524.961 279.964C525.035 280.358 525.115 280.753 525.195 281.141L525.233 281.307C526.048 284.746 526.681 288.225 527.128 291.731C527.178 292.171 527.215 292.608 527.24 293.044C527.344 295.059 527.327 297.078 527.19 299.091C527.048 301.47 526.826 303.843 526.715 306.223C526.715 306.642 526.715 307.055 526.671 307.456C526.641 308.658 526.671 309.86 526.671 311.062C526.797 313.937 527.139 316.8 527.697 319.624C528.738 324.877 530.538 329.951 533.039 334.689C533.273 335.133 533.514 335.57 533.755 336.002C536.886 341.587 540.838 346.709 543.735 352.423C546.233 357.565 548.099 362.99 549.293 368.579C549.705 370.425 550.096 372.274 550.466 374.127C551.041 377.086 551.553 380.069 552.078 383.053C552.128 383.349 552.183 383.669 552.239 383.94C552.937 387.898 553.671 391.837 554.616 395.702C555.166 397.952 555.784 400.171 556.506 402.353L561.051 396.669Z" fill="#464353"/>
<path d="M552.801 348.083C552.801 348.638 552.764 349.193 552.739 349.754C552.629 352.459 552.379 355.156 551.992 357.835C551.48 361.492 550.584 365.085 549.318 368.555C548.478 370.836 547.411 373.027 546.131 375.095C544.996 376.931 543.667 378.64 542.166 380.193C538.461 384.039 533.125 385.266 527.962 386.887C525.587 387.573 523.291 388.509 521.113 389.679C520.724 389.895 520.341 390.129 519.971 390.376L513.511 394.647C511.498 395.973 509.441 397.347 508.058 399.314C507.831 399.648 507.625 399.996 507.44 400.355C506.566 402.166 505.927 404.08 505.538 406.051C502.179 420.019 498.813 433.999 496.509 448.177C496.355 449.114 496.207 450.057 496.046 451L495.991 451.296C495.963 451.226 495.93 451.158 495.892 451.093C479.366 461.066 462.228 470.066 444.572 477.272L440.737 445.218C440.337 442.613 440.205 439.973 440.342 437.34C440.706 433.192 442.398 429.259 442.855 425.123C443.288 421.074 442.521 416.987 440.65 413.368C439.922 411.963 439.008 410.582 438.841 409.01C438.674 407.438 439.582 406.002 441.163 405.842C442.398 404.473 442.497 402.605 442.133 400.756C441.939 399.791 441.649 398.847 441.268 397.939C440.218 395.363 438.89 392.558 439.792 389.926C440.03 389.449 440.137 388.917 440.101 388.385C440.107 388.352 440.107 388.319 440.101 388.286C439.891 387.596 439.069 387.294 438.643 386.708C437.84 385.617 438.643 384.131 439.137 382.874C439.618 381.523 439.897 380.108 439.965 378.676C440.033 377.881 440.082 377.08 440.169 376.291C440.289 375.223 440.481 374.164 440.743 373.122C442.243 367.217 445.851 362.062 450.89 358.624C453.292 357.009 455.966 355.832 458.418 354.309C460.929 352.619 463.327 350.766 465.594 348.762C471.033 344.241 476.688 339.98 482.559 335.977C488.871 331.674 495.411 327.711 502.148 324.105C503.589 323.328 505.03 322.572 506.471 321.837C508.039 321.015 509.618 320.236 511.207 319.5C516.296 317.078 522.07 317.984 527.697 319.599C530.056 320.271 532.384 321.072 534.632 321.8C536.827 322.512 538.939 323.458 540.931 324.623C545.915 327.545 550.034 331.859 551.745 337.309C551.747 337.343 551.747 337.378 551.745 337.413C552.832 340.828 552.899 344.49 552.801 348.083Z" fill="#F86D70"/>
<path opacity="0.1" d="M552.801 348.083C552.801 348.638 552.764 349.193 552.739 349.754C552.629 352.459 552.379 355.156 551.992 357.835C551.48 361.492 550.584 365.085 549.318 368.555C548.478 370.836 547.411 373.027 546.131 375.095C544.996 376.931 543.667 378.64 542.166 380.193C538.461 384.039 533.125 385.266 527.962 386.887C525.587 387.573 523.291 388.509 521.113 389.679C520.724 389.895 520.341 390.129 519.971 390.376L513.511 394.647C511.498 395.973 509.441 397.347 508.058 399.314C507.831 399.648 507.625 399.996 507.44 400.355C506.566 402.166 505.927 404.08 505.538 406.051C502.179 420.019 498.813 433.999 496.509 448.177C496.355 449.114 496.207 450.057 496.046 451L495.991 451.296C495.963 451.226 495.93 451.158 495.892 451.093C479.366 461.066 462.228 470.066 444.572 477.272L440.737 445.218C440.337 442.613 440.205 439.973 440.342 437.34C440.706 433.192 442.398 429.259 442.855 425.123C443.288 421.074 442.521 416.987 440.65 413.368C439.922 411.963 439.008 410.582 438.841 409.01C438.674 407.438 439.582 406.002 441.163 405.842C442.398 404.473 442.497 402.605 442.133 400.756C441.939 399.791 441.649 398.847 441.268 397.939C440.218 395.363 438.89 392.558 439.792 389.926C440.03 389.449 440.137 388.917 440.101 388.385C440.107 388.352 440.107 388.319 440.101 388.286C439.891 387.596 439.069 387.294 438.643 386.708C437.84 385.617 438.643 384.131 439.137 382.874C439.618 381.523 439.897 380.108 439.965 378.676C440.033 377.881 440.082 377.08 440.169 376.291C440.289 375.223 440.481 374.164 440.743 373.122C442.243 367.217 445.851 362.062 450.89 358.624C453.292 357.009 455.966 355.832 458.418 354.309C460.929 352.619 463.327 350.766 465.594 348.762C471.033 344.241 476.688 339.98 482.559 335.977C488.871 331.674 495.411 327.711 502.148 324.105C503.589 323.328 505.03 322.572 506.471 321.837C508.039 321.015 509.618 320.236 511.207 319.5C516.296 317.078 522.07 317.984 527.697 319.599C530.056 320.271 532.384 321.072 534.632 321.8C536.827 322.512 538.939 323.458 540.931 324.623C545.915 327.545 550.034 331.859 551.745 337.309C551.747 337.343 551.747 337.378 551.745 337.413C552.832 340.828 552.899 344.49 552.801 348.083Z" fill="black"/>
<path d="M494.162 245.981C494.1 245.837 494.009 245.708 493.895 245.601C493.782 245.494 493.647 245.411 493.501 245.356C493.354 245.302 493.198 245.278 493.041 245.286C492.885 245.294 492.732 245.333 492.591 245.401C492.45 245.469 492.325 245.565 492.222 245.683C492.12 245.8 492.042 245.938 491.994 246.086C491.945 246.235 491.928 246.392 491.942 246.547C491.956 246.703 492.001 246.854 492.075 246.991L491.458 247.294L509.873 284.969L513.202 283.348L494.786 245.648L494.162 245.981Z" fill="#3F3D56"/>
<path d="M517.185 206.518C539.014 206.518 556.71 188.855 556.71 167.067C556.71 145.279 539.014 127.616 517.185 127.616C495.357 127.616 477.661 145.279 477.661 167.067C477.661 188.855 495.357 206.518 517.185 206.518Z" fill="#FBBEBE"/>
<path d="M569.351 142.645C569.166 139.509 568.699 136.395 567.955 133.343C565.633 123.375 561.391 113.562 554.085 106.406C553.635 104.656 553.097 102.93 552.473 101.234C552.461 101.192 552.447 101.151 552.43 101.111C550.251 95.1362 547.1 89.561 543.105 84.6091C540.789 81.7366 537.787 78.9011 534.094 78.7901C533.057 78.7532 531.958 78.9319 531.006 78.4573C530.307 78.0059 529.718 77.4034 529.283 76.6943C527.455 74.3876 525.029 72.6234 522.269 71.5925C519.509 70.5615 516.519 70.3029 513.622 70.8445L513.239 70.9247C513.023 70.9678 512.807 71.0171 512.622 71.0726C512.436 71.1281 512.103 71.2206 511.843 71.3007C512.127 71.7692 512.405 72.2438 512.677 72.7246C513.41 74.0273 514.089 75.3588 514.715 76.719C515.234 77.8532 515.713 79.0059 516.154 80.1771C509.83 80.8983 504.68 85.3796 499.974 89.6452L488.895 99.6805C488.875 99.6974 488.856 99.7159 488.839 99.7359L488.518 100.044C488.438 100.124 488.357 100.204 488.283 100.291C488.253 100.316 488.226 100.345 488.203 100.377C488.11 100.476 488.024 100.58 487.937 100.685C487.783 100.879 487.645 101.085 487.524 101.302C487.463 101.394 487.409 101.491 487.363 101.591C487.346 101.621 487.332 101.652 487.32 101.684C487.28 101.768 487.245 101.854 487.215 101.943C487.212 101.955 487.212 101.967 487.215 101.98C487.198 102.03 487.183 102.082 487.172 102.134C487.046 102.568 487.083 103.032 487.277 103.441L494.582 103.521H495.441C495.478 104.495 495.509 105.475 495.546 106.449C494.387 107.315 493.274 108.241 492.211 109.223C491.052 110.293 489.965 111.438 488.956 112.65C482.367 120.595 478.927 130.859 478.581 141.19C478.581 141.51 478.581 141.806 478.581 142.139C478.581 143.082 478.581 144.025 478.581 144.962C478.581 145.579 478.637 146.195 478.686 146.812C478.689 147.615 478.902 148.403 479.304 149.098C479.356 149.176 479.414 149.25 479.477 149.32C479.847 149.722 480.292 150.048 480.786 150.282L481.317 150.541C481.583 150.67 481.836 150.794 482.083 150.935C484.411 152.248 485.788 154.782 487.907 156.409C488.03 156.502 488.154 156.594 488.277 156.674L488.555 156.859L488.728 156.97L488.963 157.106C489.116 157.198 489.275 157.283 489.438 157.358L489.735 157.506H489.784C490.031 157.617 490.278 157.722 490.531 157.815L490.883 157.938L490.988 157.975C491.087 158.006 491.192 158.043 491.297 158.067C491.507 158.129 491.713 158.184 491.915 158.234L492.532 158.369C492.773 158.413 493.02 158.456 493.267 158.486L493.631 158.536L494.002 158.573C494.591 158.626 495.184 158.657 495.781 158.665C497.654 158.654 499.525 158.524 501.382 158.277L517.142 156.428C520.718 156.015 524.368 155.602 527.894 156.329C530.883 156.945 533.637 158.363 536.54 159.368C537.194 159.596 537.849 159.806 538.51 159.984C538.751 160.052 538.998 160.126 539.245 160.188L539.584 160.274L540.375 160.465C540.659 160.533 540.943 160.601 541.227 160.656C541.629 160.743 542.024 160.817 542.425 160.891C542.697 160.946 542.975 160.989 543.253 161.038H543.308L544.099 161.162H544.29L544.877 161.242C545.161 161.285 545.445 161.322 545.735 161.353C546.365 161.431 546.995 161.499 547.625 161.556C548.644 161.655 549.669 161.729 550.713 161.79L551.738 161.852L552.763 161.901L555.851 162.037H555.987H556.419C557.703 162.126 558.993 162.06 560.261 161.84C560.483 161.797 560.699 161.747 560.915 161.686C561.131 161.624 561.31 161.562 561.533 161.488C563.849 160.601 565.541 158.56 566.714 156.378C566.961 155.916 567.19 155.454 567.4 154.979C567.61 154.504 567.801 154.024 567.974 153.543C568.19 152.926 568.375 152.341 568.536 151.724C568.585 151.558 568.629 151.392 568.666 151.219C568.703 151.046 568.789 150.707 568.839 150.448C568.993 149.74 569.11 149.024 569.197 148.303C569.197 148.075 569.252 147.841 569.277 147.613C569.333 146.996 569.376 146.423 569.401 145.819C569.401 145.363 569.401 144.901 569.401 144.438C569.394 143.939 569.351 143.28 569.351 142.645ZM553.517 105.845C553.017 105.376 552.504 104.926 551.985 104.501C552.562 104.864 553.077 105.318 553.511 105.845H553.517Z" fill="#464353"/>
<path d="M441.33 164.897C436.68 164.324 432.066 162.29 427.478 163.288C424.606 163.905 422.136 165.686 419.839 167.517C411.289 174.357 404.02 182.652 398.366 192.02C397.407 193.42 396.734 194.995 396.383 196.655C396.087 198.578 396.612 200.532 397.236 202.375C401.46 214.833 410.495 225.238 414.608 237.733C418.931 250.875 417.43 265.237 414.243 278.7C410.293 295.32 403.874 311.256 395.198 325.979C394.02 328.168 392.544 330.184 390.813 331.97C388.565 334.128 385.545 335.669 384.211 338.492C383.594 339.725 383.415 341.13 382.976 342.449C381.741 346.148 378.752 349.316 378.462 353.218C378.246 356.196 379.66 359.013 380.518 361.848C381.966 366.72 381.812 371.926 380.08 376.704C376.949 385.272 368.76 393.063 371.137 401.872C376.442 400.349 382.321 398.371 384.823 393.458C385.706 391.72 386.144 389.648 387.633 388.379C390.603 385.857 395.661 388.138 398.817 385.82C401.2 384.058 401.287 380.445 400.225 377.671C399.162 374.898 397.334 372.457 396.519 369.603C395.099 364.456 397.372 359.013 396.952 353.693C396.754 351.227 395.994 348.866 395.939 346.413C395.834 341.648 398.477 337.167 401.991 333.931C405.505 330.694 409.846 328.549 414.12 326.435L430.275 318.422C436.136 315.524 442.559 311.992 444.479 305.754C445.208 303.418 445.214 300.928 445.251 298.487C445.801 261.187 455.163 224.64 464.47 188.512C465.915 182.915 467.385 177.293 469.534 171.918C471.683 166.543 475.889 162.228 478.032 157.235C465.6 155.78 454.243 166.512 441.33 164.897Z" fill="#464353"/>
<path d="M530.389 398.895C531.816 407.524 532.686 416.339 533.366 425.111C522.249 434.308 510.281 442.309 498.121 449.73C497.429 450.156 496.732 450.575 496.034 450.963L495.978 451.259C495.95 451.189 495.917 451.121 495.879 451.056C494.936 449.021 493.286 447.396 491.235 446.482C486.678 436.927 482.124 427.373 477.575 417.819C475.104 412.659 472.634 407.451 471.399 401.884C471.399 401.767 471.343 401.644 471.325 401.527C470.386 397.212 470.17 392.731 469.546 388.36C469.23 385.857 468.665 383.392 467.86 381C467.119 378.874 466.1 376.809 465.199 374.731C464.087 372.167 463.154 369.572 463.111 366.804C463.111 365.923 463.167 364.955 462.735 364.215C462.272 363.578 461.702 363.028 461.049 362.588C460.233 361.866 459.615 360.95 459.252 359.924C458.889 358.899 458.793 357.798 458.974 356.726C455.268 356.917 453.181 360.893 451.692 364.264C450.339 367.562 448.562 370.67 446.406 373.511C444.834 375.54 442.836 377.2 440.552 378.374C440.348 378.473 440.144 378.572 439.934 378.658C434.777 380.926 428.756 380.125 423.167 379.102C418.282 378.208 413.23 377.098 409.303 374.065L408.883 373.733C407.72 372.768 406.683 371.662 405.795 370.441C402.503 365.953 401.046 360.042 400.237 354.414C400.163 353.884 400.089 353.354 400.021 352.824C399.459 348.847 399.304 344.824 399.557 340.816C399.632 339.83 399.737 338.844 399.866 337.863C399.953 337.247 400.045 336.581 400.15 335.94C400.147 335.922 400.147 335.903 400.15 335.885C400.311 334.868 400.484 333.844 400.657 332.803C401.274 329.308 401.892 325.72 403.745 322.712C404.964 320.84 406.502 319.196 408.29 317.855C408.957 317.331 409.642 316.831 410.334 316.351C411.458 315.574 412.613 314.834 413.786 314.138C416.738 312.374 419.838 310.868 423.05 309.638C423.815 309.342 424.594 309.065 425.372 308.799C428.396 307.726 431.652 307.468 434.808 308.054C437.605 308.458 440.431 308.623 443.256 308.547C450.501 308.405 457.775 307.024 465.007 306.13C475.049 304.898 485.838 304.75 494.595 309.829C495.015 310.069 495.422 310.322 495.83 310.587C500.153 313.41 503.636 317.368 506.446 321.787C507.063 322.718 507.601 323.674 508.132 324.641C509.356 326.863 510.463 329.147 511.448 331.484C512.031 332.631 512.346 333.896 512.368 335.182C512.354 335.427 512.321 335.67 512.27 335.909C512.103 336.785 511.769 337.635 511.652 338.523C511.263 341.882 514.122 344.687 515.191 347.886C515.882 349.97 515.808 352.201 516.197 354.396C516.759 357.478 518.272 360.252 519.631 363.025C521.778 367.491 523.614 372.098 525.127 376.815C526.202 380.1 527.122 383.435 527.931 386.801C528.195 387.881 528.444 388.964 528.678 390.049C529.351 393.033 529.901 395.954 530.389 398.895Z" fill="#F86D70"/>
<path d="M596.234 307.61V311.925L595.437 311.912L594.548 311.9L584.618 311.777L560.15 311.456L553.282 311.37L551.504 311.345L541.197 311.216L526.671 311.025L495.855 310.624L442.38 309.934L423.081 309.687L415.336 309.588L408.21 309.496L403.769 309.434L399.564 309.379L368.383 308.978L359.737 308.867L357.853 308.843L356.631 305.693L347.744 282.818L346.12 278.638L347.355 273.707L352.913 277.405L356.334 277.831L412.662 284.821L423.235 286.134L445.653 288.92L467.614 291.645L476.222 292.711L527.165 299.035L541.4 300.805L553.184 302.265L595.079 307.468L596.234 307.61Z" fill="#3F3D56"/>
<path d="M347.354 273.707L358.471 302.678L596.234 307.61V276.173L347.354 273.707Z" fill="#504F60"/>
<path d="M359.706 305.76L361.559 482.672L370.205 481.439L368.352 305.76H359.706Z" fill="#3F3D56"/>
<path d="M595.437 311.906H594.548C593.108 322.936 590.726 333.822 587.427 344.447L584.618 311.777L584.5 310.384L594.888 309.188L595.233 309.151L595.437 311.906Z" fill="#3F3D56"/>
<path d="M561.65 290.966L471.177 292.816L443.077 283.57L518.42 279.255L561.65 290.966Z" fill="white"/>
<path d="M448.16 255.017C447.201 255.384 446.351 255.989 445.69 256.774C445.173 257.624 444.858 258.582 444.77 259.572L443.251 268.615C443.019 269.442 443.06 270.322 443.368 271.124C443.763 271.882 444.912 272.277 445.486 271.648C445.412 273.417 445.566 275.303 446.598 276.746C447.629 278.188 449.791 278.946 451.248 277.942C451.477 278.313 451.783 278.631 452.147 278.873C452.511 279.114 452.923 279.274 453.355 279.341C453.787 279.408 454.228 279.38 454.648 279.26C455.068 279.14 455.457 278.93 455.787 278.644C454.91 278.94 454.848 280.278 455.472 280.956C456.171 281.571 457.061 281.926 457.992 281.961C468.844 283.488 479.908 282.098 490.043 277.935C491.001 277.541 488.481 265.761 488.228 264.553C487.61 261.711 487.301 258.241 484.899 256.33C479.156 251.756 468.954 250.856 461.957 251.399C457.176 251.76 452.501 252.986 448.16 255.017Z" fill="#FBBEBE"/>
<path opacity="0.1" d="M540.214 256.386C517.877 256.811 495.077 257.175 473.758 250.499C475.795 258.375 475.654 266.656 473.351 274.459L577.793 283.089C582.221 283.452 600.582 285.524 604.898 284.482C609.215 283.44 568.678 270.113 570.315 265.989C574.817 254.629 589.898 247.972 579.035 247.546C565.325 247.004 554.029 256.127 540.214 256.386Z" fill="black"/>
<path d="M540.832 257.619C518.495 258.044 495.694 258.408 474.376 251.732C476.412 259.608 476.271 267.889 473.968 275.692L578.411 284.322C582.839 284.685 601.199 286.787 605.516 285.715C609.833 284.642 608.82 279.359 610.456 275.236C614.959 263.875 590.515 249.204 579.652 248.779C565.942 248.237 554.647 257.36 540.832 257.619Z" fill="#464353"/>
<path d="M505.316 259.332C506.275 259.699 507.126 260.303 507.786 261.089C508.302 261.94 508.619 262.897 508.712 263.887L510.232 272.93C510.46 273.758 510.419 274.636 510.114 275.439C509.719 276.197 508.564 276.592 507.996 275.963C508.064 277.732 507.916 279.618 506.884 281.061C505.853 282.503 503.692 283.261 502.228 282.257C501.999 282.628 501.693 282.946 501.329 283.188C500.965 283.429 500.553 283.589 500.121 283.656C499.689 283.723 499.248 283.695 498.828 283.575C498.408 283.454 498.019 283.244 497.689 282.959C498.566 283.255 498.634 284.593 498.01 285.271C497.309 285.886 496.417 286.241 495.484 286.276C484.634 287.803 473.572 286.413 463.439 282.25C462.481 281.856 464.995 270.076 465.254 268.868C465.872 266.026 466.181 262.556 468.583 260.645C474.32 256.071 484.528 255.171 491.525 255.714C496.304 256.075 500.977 257.301 505.316 259.332Z" fill="#FBBEBE"/>
<path d="M357.717 239.699C355.667 242.337 353.611 245.031 352.289 248.107C349.763 253.975 350.134 260.62 350.554 266.994C350.671 268.843 350.819 270.73 351.789 272.264C352.627 273.424 353.733 274.365 355.012 275.007C360.361 278.04 366.623 278.946 372.737 279.624C382.099 280.66 391.494 281.291 400.922 281.517C424.279 282.084 447.993 280.179 470.744 285.462C467.928 281.19 467.935 275.538 469.509 270.668C471.084 265.798 474.116 261.557 477.087 257.384C466.675 254.093 455.509 259.233 444.603 258.722C433.406 258.198 423.044 251.738 411.835 251.744C409.426 251.744 406.975 252.046 404.634 251.467C402.293 250.887 400.027 249.124 399.811 246.726C402.8 247.398 405.634 244.846 406.87 242.048C408.105 239.249 408.327 236.087 409.525 233.27C412.508 226.261 420.567 223.013 425.582 217.243C426.372 216.331 427.12 215.252 427.095 214.044C426.977 213.021 426.546 212.058 425.86 211.289C421.691 205.741 415.41 202.659 410.192 198.344C408.376 196.84 404.714 191.169 402.676 190.645C398.897 189.677 395.692 195.126 393.234 197.783C380.825 211.241 368.986 225.213 357.717 239.699Z" fill="#464353"/>
<path opacity="0.07" d="M481.898 238.134C483.463 239.292 484.854 240.668 486.029 242.22C486.615 243 487.032 243.892 487.254 244.841C487.476 245.789 487.498 246.773 487.32 247.731C487.128 245.945 487.527 244.144 488.456 242.605C489.385 241.066 490.792 239.872 492.464 239.206L481.898 238.134Z" fill="black"/>
<g opacity="0.1">
<path opacity="0.1" d="M516.148 76.4848C515.421 74.5582 514.584 72.675 513.64 70.8446C513.03 70.9616 512.428 71.116 511.837 71.3069C512.897 73.0635 513.851 74.881 514.696 76.7499C515.172 76.6266 515.654 76.5403 516.148 76.4848Z" fill="black"/>
<path opacity="0.1" d="M551.979 100.79C552.146 100.926 552.307 101.081 552.468 101.223C552.457 101.183 552.442 101.144 552.425 101.106C552.285 101.003 552.136 100.897 551.979 100.79Z" fill="black"/>
<path opacity="0.1" d="M494.57 103.502C494.891 103.25 495.187 102.985 495.533 102.738L495.435 99.81L488.839 99.7422C487.771 100.722 486.634 102.128 487.264 103.441L494.57 103.502Z" fill="black"/>
<path opacity="0.1" d="M566.677 152.791C565.504 154.973 563.812 157.019 561.496 157.901C559.711 158.579 557.747 158.517 555.839 158.431C549.33 158.166 542.709 157.876 536.558 155.725C533.681 154.714 530.926 153.302 527.912 152.68C524.386 151.953 520.736 152.366 517.161 152.785L501.4 154.634C496.75 155.176 491.569 155.583 487.857 152.735C485.733 151.108 484.362 148.575 482.033 147.268C481.051 146.713 479.884 146.355 479.248 145.419C478.847 144.723 478.634 143.935 478.631 143.132C478.581 142.484 478.55 141.837 478.526 141.19C478.459 143.071 478.494 144.953 478.631 146.83C478.634 147.633 478.847 148.421 479.248 149.117C479.866 150.048 481.051 150.405 482.033 150.966C484.362 152.273 485.739 154.807 487.857 156.434C491.562 159.282 496.75 158.9 501.4 158.332L517.161 156.483C520.736 156.064 524.386 155.651 527.912 156.378C530.902 156.995 533.656 158.413 536.558 159.423C542.734 161.575 549.33 161.889 555.839 162.13C557.747 162.21 559.711 162.277 561.496 161.599C563.812 160.718 565.504 158.671 566.677 156.489C568.95 152.267 569.586 147.477 569.345 142.651C569.213 146.185 568.302 149.647 566.677 152.791Z" fill="black"/>
</g>
<path opacity="0.1" d="M515.969 80.4484L524.615 88.4617C524.615 88.4617 517.204 85.3797 515.969 80.4484Z" fill="black"/>
</g>
<defs>
<filter id="filter0_d" x="0" y="0" width="615.004" height="503" filterUnits="userSpaceOnUse" color-interpolation-filters="sRGB">
<feFlood flood-opacity="0" result="BackgroundImageFix"/>
<feColorMatrix in="SourceAlpha" type="matrix" values="0 0 0 0 0 0 0 0 0 0 0 0 0 0 0 0 0 0 127 0" result="hardAlpha"/>
<feOffset dy="4"/>
<feGaussianBlur stdDeviation="2"/>
<feComposite in2="hardAlpha" operator="out"/>
<feColorMatrix type="matrix" values="0 0 0 0 0 0 0 0 0 0 0 0 0 0 0 0 0 0 0.25 0"/>
<feBlend mode="normal" in2="BackgroundImageFix" result="effect1_dropShadow"/>
<feBlend mode="normal" in="SourceGraphic" in2="effect1_dropShadow" result="shape"/>
</filter>
<linearGradient id="paint0_linear" x1="4.00085" y1="0.0140381" x2="678.173" y2="325.008" gradientUnits="userSpaceOnUse">
<stop stop-color="#BF2626"/>
<stop offset="0.265625" stop-color="#B92229"/>
<stop offset="0.510417" stop-color="#B31E2C"/>
<stop offset="0.776042" stop-color="#AD1A2F"/>
<stop offset="1" stop-color="#A61731"/>
</linearGradient>
</defs>
</svg>
